<?xml version="1.0" encoding="UTF-8" standalone="no"?>
<!-- Created with Inkscape (http://www.inkscape.org/) -->

<svg
   xmlns:dc="http://purl.org/dc/elements/1.1/"
   xmlns:cc="http://creativecommons.org/ns#"
   xmlns:rdf="http://www.w3.org/1999/02/22-rdf-syntax-ns#"
   xmlns:svg="http://www.w3.org/2000/svg"
   xmlns="http://www.w3.org/2000/svg"
   xmlns:sodipodi="http://sodipodi.sourceforge.net/DTD/sodipodi-0.dtd"
   xmlns:inkscape="http://www.inkscape.org/namespaces/inkscape"
   version="1.0"
   width="166.03305"
   height="192.11954"
   id="svg2811"
   inkscape:version="0.92.4 (5da689c313, 2019-01-14)"
   sodipodi:docname="hexicon.svg"
   inkscape:export-filename="/home/pacha/GitHub/gravity/docs/apple.png"
   inkscape:export-xdpi="90"
   inkscape:export-ydpi="90">
  <metadata
     id="metadata17">
    <rdf:RDF>
      <cc:Work
         rdf:about="">
        <dc:format>image/svg+xml</dc:format>
        <dc:type
           rdf:resource="http://purl.org/dc/dcmitype/StillImage" />
        <dc:title></dc:title>
      </cc:Work>
    </rdf:RDF>
  </metadata>
  <sodipodi:namedview
     pagecolor="#ffffff"
     bordercolor="#666666"
     borderopacity="1"
     objecttolerance="10"
     gridtolerance="10"
     guidetolerance="10"
     inkscape:pageopacity="0"
     inkscape:pageshadow="2"
     inkscape:window-width="1366"
     inkscape:window-height="705"
     id="namedview15"
     showgrid="false"
     fit-margin-top="0"
     fit-margin-left="0"
     fit-margin-right="0"
     fit-margin-bottom="0"
     inkscape:zoom="1.0381801"
     inkscape:cx="-83.468274"
     inkscape:cy="64.760417"
     inkscape:window-x="-8"
     inkscape:window-y="-8"
     inkscape:window-maximized="1"
     inkscape:current-layer="g79"
     showguides="true"
     inkscape:guide-bbox="true" />
  <defs
     id="defs2813">
    <inkscape:perspective
       sodipodi:type="inkscape:persp3d"
       inkscape:vp_x="0 : 882.13641 : 1"
       inkscape:vp_y="0 : 1000 : 0"
       inkscape:vp_z="1500 : 882.13641 : 1"
       inkscape:persp3d-origin="750 : 588.09094 : 1"
       id="perspective4362" />
    <clipPath
       id="clp12">
      <path
         d="m 45.315,71.927 h 12.92 v 15.867 h -12.92 z"
         id="path184"
         inkscape:connector-curvature="0" />
    </clipPath>
    <clipPath
       id="clp21">
      <path
         d="m 123.91,72.178 h 26.23 v 15.294 h -26.23 z"
         id="path592"
         inkscape:connector-curvature="0" />
    </clipPath>
    <clipPath
       id="clp9">
      <path
         d="m 413.96,49.857 h 31.76 v 8.719 h -31.76 z"
         id="path100"
         inkscape:connector-curvature="0" />
    </clipPath>
  </defs>
  <g
     transform="translate(2262.3539,-2951.9859)"
     id="layer1">
    <g
       transform="translate(19.48863,19.49672)"
       id="g25472">
      <g
         id="g4353"
         transform="matrix(0.67573771,0,0,0.67573771,374.45067,977.3331)">
        <g
           transform="translate(80.542606)"
           id="g4347">
          <g
             id="g79"
             transform="translate(8.0109432,4.5958121)">
            <path
               sodipodi:type="star"
               style="fill:#3ead9c;fill-opacity:1;stroke:#3ead9c;stroke-width:73.99320221;stroke-miterlimit:4;stroke-dasharray:none;stroke-opacity:1"
               id="path4560"
               sodipodi:sides="6"
               sodipodi:cx="-5551.2134"
               sodipodi:cy="-204.52565"
               sodipodi:r1="1701.6108"
               sodipodi:r2="1473.6381"
               sodipodi:arg1="1.0471976"
               sodipodi:arg2="1.5707963"
               inkscape:flatsided="true"
               inkscape:rounded="0"
               inkscape:randomized="0"
               d="m -4700.408,1269.1126 -1701.6109,-10e-5 -850.8053,-1473.63823 850.8055,-1473.63817 1701.6108,10e-5 850.8054,1473.63823 z"
               inkscape:transform-center-x="1.5731476e-05"
               inkscape:transform-center-y="7.9344316e-05"
               transform="matrix(0,0.08149567,-0.08132553,0,-3913.2866,3483.3248)" />
            <g
               id="g105"
               transform="translate(-2.2678431,-2.0159429)">
              <path
                 style="fill:#000000;fill-opacity:1;stroke-width:1.0527842"
                 d="m -3977.3933,3097.2838 c 0,-0.5068 2.1319,-10.041 4.7375,-21.1871 2.6056,-11.146 4.7375,-20.917 4.7375,-21.7133 0,-0.7963 -0.9195,-1.4479 -2.0434,-1.4479 -1.1239,0 -2.2831,-0.3878 -2.576,-0.8617 -0.4639,-0.7505 16.142,-74.7364 17.6652,-78.7059 0.8659,-2.2565 29.9178,-2.1917 30.7852,0.069 0.4771,1.2433 -14.3143,67.8509 -16.1897,72.9044 -0.2656,0.7158 0.7496,1.77 2.256,2.3428 3.1585,1.2008 3.3082,2.5646 1.1598,10.5685 -0.8547,3.1846 -1.5597,6.3825 -1.5666,7.1063 -0.01,0.9888 3.5863,1.32 14.4633,1.3321 7.9616,0.01 15.1559,0.4464 15.987,0.9724 1.2948,0.8193 1.1742,2.4379 -0.8427,11.3013 -1.2946,5.6898 -2.822,12.1216 -3.3942,14.293 l -1.0402,3.9479 h -32.0694 c -17.6381,0 -32.0693,-0.4147 -32.0693,-0.9215 z m 72.2315,0.056 c -0.2941,-0.476 2.0445,-11.895 5.1969,-25.3755 3.1523,-13.4805 5.469,-24.935 5.1481,-25.4542 -0.321,-0.5193 -1.2811,-0.9442 -2.1337,-0.9442 -0.8525,0 -1.7999,-0.6511 -2.1053,-1.4469 -0.6925,-1.8046 15.0378,-69.0117 16.5905,-70.8827 1.2789,-1.5409 27.7651,-1.7821 49.5395,-0.4511 11.3579,0.6941 12.7024,1.004 16.8446,3.8821 6.0346,4.1931 9.239,10.6537 9.239,18.628 0,6.1841 -5.0743,29.1424 -7.976,36.0871 -1.6602,3.9737 -1.2895,5.7612 1.195,5.7612 2.3606,0 1.7961,1.7332 -1.3782,4.2303 -6.2505,4.9174 -9.4054,5.5908 -28.382,6.0581 -11.9143,0.2935 -18.4467,0.8614 -19.0791,1.6588 -0.529,0.6669 -3.4106,11.5939 -6.4037,24.2822 -2.9931,12.6883 -5.6871,23.4661 -5.9867,23.9508 -0.705,1.1409 -29.6042,1.1561 -30.3089,0.016 z m 60.1042,-74.1455 c 3.1753,-3.4862 4.0979,-5.7136 6.0783,-14.6747 2.0292,-9.1816 1.6391,-11.602 -2.1482,-13.3276 -3.5772,-1.6299 -13.6138,-1.5602 -14.9117,0.1034 -1.4738,1.8891 -7.8181,28.0966 -7.0878,29.2783 0.3363,0.5441 4.054,0.9892 8.2616,0.9892 6.5925,0 7.9486,-0.3275 9.8078,-2.3687 z"
                 id="path101"
                 inkscape:connector-curvature="0" />
              <path
                 inkscape:connector-curvature="0"
                 id="path87"
                 d="m -3981.929,3093.2519 c 0,-0.5068 2.1319,-10.041 4.7375,-21.1871 2.6056,-11.146 4.7375,-20.917 4.7375,-21.7133 0,-0.7963 -0.9195,-1.4479 -2.0434,-1.4479 -1.1239,0 -2.2831,-0.3878 -2.576,-0.8617 -0.4639,-0.7505 16.142,-74.7364 17.6652,-78.7059 0.8659,-2.2565 29.9178,-2.1917 30.7852,0.069 0.4771,1.2433 -14.3143,67.8509 -16.1897,72.9044 -0.2656,0.7158 0.7496,1.77 2.256,2.3428 3.1585,1.2008 3.3082,2.5646 1.1598,10.5685 -0.8547,3.1846 -1.5597,6.3825 -1.5666,7.1063 -0.01,0.9888 3.5863,1.32 14.4633,1.3321 7.9616,0.01 15.1559,0.4464 15.987,0.9724 1.2948,0.8193 1.1742,2.4379 -0.8427,11.3013 -1.2946,5.6898 -2.822,12.1216 -3.3942,14.293 l -1.0402,3.9479 h -32.0694 c -17.6381,0 -32.0693,-0.4147 -32.0693,-0.9215 z m 72.2315,0.056 c -0.2941,-0.476 2.0445,-11.895 5.1969,-25.3755 3.1523,-13.4805 5.469,-24.935 5.1481,-25.4542 -0.321,-0.5193 -1.2811,-0.9442 -2.1337,-0.9442 -0.8525,0 -1.7999,-0.6511 -2.1053,-1.4469 -0.6925,-1.8046 15.0378,-69.0117 16.5905,-70.8827 1.2789,-1.5409 27.7651,-1.7821 49.5395,-0.4511 11.3579,0.6941 12.7024,1.004 16.8446,3.8821 6.0346,4.1931 9.239,10.6537 9.239,18.628 0,6.1841 -5.0743,29.1424 -7.976,36.0871 -1.6602,3.9737 -1.2895,5.7612 1.195,5.7612 2.3606,0 1.7961,1.7332 -1.3782,4.2303 -6.2505,4.9174 -9.4054,5.5908 -28.382,6.0581 -11.9143,0.2935 -18.4467,0.8614 -19.0791,1.6588 -0.529,0.6669 -3.4106,11.5939 -6.4037,24.2822 -2.9931,12.6883 -5.6871,23.4661 -5.9867,23.9508 -0.705,1.1409 -29.6042,1.1561 -30.3089,0.016 z m 60.1042,-74.1455 c 3.1753,-3.4862 4.0979,-5.7136 6.0783,-14.6747 2.0292,-9.1816 1.6391,-11.602 -2.1482,-13.3276 -3.5772,-1.6299 -13.6138,-1.5602 -14.9117,0.1034 -1.4738,1.8891 -7.8181,28.0966 -7.0878,29.2783 0.3363,0.5441 4.054,0.9892 8.2616,0.9892 6.5925,0 7.9486,-0.3275 9.8078,-2.3687 z"
                 style="fill:#ff8900;fill-opacity:1;stroke-width:1.0527842" />
            </g>
          </g>
          <g
             id="g4483"
             transform="matrix(0.05952936,0,3.5003203e-4,0.05952936,-3628.393,3020.4988)" />
        </g>
      </g>
    </g>
  </g>
</svg>
